<?xml version="1.0" encoding="UTF-8"?>
<svg id="Capa_1" xmlns="http://www.w3.org/2000/svg" viewBox="0 0 800 800">
  <defs>
    <style>
      .cls-1 {
        fill: #000000;
      }
    </style>
  </defs>
  <path class="cls-1" d="M102.62,483.72c292.43,156.82,540.09,32.09,540.09,32.09,22.98-12.51,24.26,5.87,20.43,9.45s-53.87,40.09-126.64,62.55-175.66,32.17-284.7-3.57c-107.13-35.12-166.7-94.72-166.7-94.72-1.29-1.54-2.32-2.89-3.11-4.05,0,0-8.82-17.53,20.64-1.73Z"/>
  <path class="cls-1" d="M664.79,487.81s34.25-1.87,26.25,27.4-19.91,58.38-19.91,58.38c0,0-4.77,12.43,6.64,6.13s45.36-53.96,43.32-95.15c0,0,.43-7.23-2.81-12.17-2.17-3.31-7.47-5.36-13.62-6.72-15.32-3.4-67.4-5.96-102.64,19.4,0,0-9.73,9.24,10.64,6.81,24.53-2.93,43.92-4.79,52.12-4.09Z"/>
  <path class="cls-1" d="M161.91,425.84c-17.09,0-30.94-5.27-41.56-15.81-10.62-10.54-15.93-24.22-15.93-41.04,0-18.57,6.53-33.38,19.59-44.43,13.06-11.04,30.57-16.57,52.54-16.57,12.94,0,27.09,1.88,42.47,5.65v-22.21c0-12.8-2.69-21.71-8.06-26.73-5.37-5.02-14.77-7.53-28.19-7.53-8.06,0-16.97.82-26.73,2.45-9.77,1.64-19.04,3.95-27.83,6.97-2.44.75-4.52,1.13-6.22,1.13-3.18,0-4.76-2.38-4.76-7.15v-13.93c0-3.51.49-6.02,1.46-7.53.97-1.51,3.54-3.14,7.69-4.9,19.04-7.53,40.15-11.3,63.34-11.3s41.56,5.02,52.91,15.06c11.35,10.04,17.03,25.73,17.03,47.06l-1.62,95.78,6.16,11.68,6.97,10.86c-3.89,3.79-10.35,9.69-14.76,12.65l-11.19,7.63c-5.37,0-14.22-10.68-16.05-14.76l-6-10.38c-8.55,7.53-19.96,16.69-30.33,20.96-10.38,4.27-20.69,6.4-30.94,6.4ZM173.99,394.21c7.08,0,14.52-1.56,22.33-4.71,7.81-3.14,15.38-7.59,22.7-13.37v-36.15c-12.94-2.76-24.41-4.14-34.42-4.14-25.39,0-38.08,10.17-38.08,30.5,0,8.79,2.44,15.63,7.32,20.52,4.88,4.9,11.59,7.34,20.14,7.34Z"/>
  <path class="cls-1" d="M341.01,422.22c-5.48,0-8.93-2.73-10.36-8.19l-52.88-177.06c-1.19-3.9-1.79-6.5-1.79-7.8,0-3.64,2.26-5.46,6.79-5.46h28.94c5,0,8.1,2.47,9.29,7.41l33.94,143.91,34.66-143.52c.71-3.12,1.84-5.2,3.39-6.24,1.55-1.04,3.75-1.56,6.61-1.56h23.58c3.09,0,5.36.58,6.79,1.75s2.5,3.19,3.22,6.04l34.66,146.25,35.73-146.64c1.19-4.94,4.29-7.41,9.29-7.41h26.08c4.52,0,6.79,1.82,6.79,5.46,0,1.3-.6,3.9-1.79,7.8l-53.96,177.06c-1.67,5.46-5.12,8.19-10.36,8.19h-25.01c-2.86,0-5.12-.58-6.79-1.75-1.67-1.17-2.86-3.32-3.57-6.44l-33.95-140.79-33.94,140.79c-.71,3.12-1.91,5.27-3.57,6.44-1.67,1.17-3.93,1.75-6.79,1.75h-25.01Z"/>
  <path class="cls-1" d="M620.82,425.84c-20.54,0-39.52-3.29-56.94-9.88-4.16-1.52-6.83-3.1-8-4.75-1.17-1.64-1.75-4.37-1.75-8.17v-13.68c0-5.06,1.82-7.6,5.46-7.6,1.82,0,5.46.76,10.92,2.28,18.46,5.07,35.1,7.6,49.92,7.6,13,0,22.49-1.96,28.47-5.89,5.98-3.92,8.97-9.94,8.97-18.04,0-5.57-1.82-10.07-5.46-13.48-3.64-3.42-10.4-6.9-20.28-10.45l-32.37-12.16c-29.12-10.89-43.68-28.61-43.68-53.18,0-17.72,6.76-31.72,20.28-41.98,13.52-10.26,31.59-15.38,54.21-15.38,16.12,0,32.37,2.66,48.75,7.98,3.9,1.27,6.5,2.72,7.8,4.37,1.3,1.65,1.95,4.5,1.95,8.55v13.3c0,2.79-.46,4.75-1.37,5.89-.91,1.14-2.54,1.71-4.88,1.71-1.3,0-4.55-.63-9.75-1.9-16.38-3.8-29.64-5.7-39.78-5.7-11.96,0-20.74,1.71-26.33,5.13-5.59,3.42-8.38,8.8-8.38,16.14,0,5.57,2.01,10.07,6.04,13.49,4.03,3.42,11.24,7.16,21.64,11.21l30.03,11.4c15.6,5.83,26.84,12.79,33.73,20.89,6.89,8.11,10.33,18.36,10.33,30.77,0,18.99-7.02,34-21.06,45.01-14.04,11.02-33.54,16.52-58.5,16.52Z"/>
</svg>
