<?xml version="1.0" encoding="UTF-8"?>
<svg id="Capa_1" xmlns="http://www.w3.org/2000/svg" viewBox="0 0 800 800">
  <defs>
    <style>
      .cls-1 {
        fill: #000;
      }
    </style>
  </defs>
  <path class="cls-1" d="M75,318.96c0-34.72,22.57-55.54,55.54-55.54v-59.02c0-17.36-11.58-28.94-27.77-28.94s-27.77,11.58-27.77,28.94v114.56Z"/>
  <path class="cls-1" d="M173.37,580.76c13.89,0,26.61-2.35,38.19-6.48-58.45,10.01-81.01-30.58-81.01-76.47v-188.23h67.7c15.62,0,26.04-9.4,26.04-22.94s-10.41-22.94-26.04-22.94h-67.7c-32.98,0-55.54,21.18-55.54,56.47v161.76c0,64.72,36.45,98.83,98.37,98.83Z"/>
  <path class="cls-1" d="M212.82,573.93c23.5-8.81,41.73-25.26,53.47-49.36l-26.44-47.6c-11.76,35.26-32.31,54.07-60.52,54.07s-48.78-17.05-48.78-55.83v22.34c0,45.84,22.92,86.38,82.28,76.39Z"/>
  <path class="cls-1" d="M455.19,564.53c-133.98,19.97-176.29-51.7-176.29-143.96,0-66.99,41.13-112.83,100.49-112.83,21.73,0,39.97,4.71,56.41,12.34,7.63,3.53,14.1,4.71,19.97,4.71,14.1,0,23.5-9.39,23.5-23.5,0-8.81-5.29-17.63-17.63-23.5-22.34-11.16-51.13-17.63-82.28-17.63-92.86,0-156.9,65.81-156.9,161.59s61.7,159.24,161.01,159.24c27.07-.02,50.57-5.31,71.73-16.47Z"/>
  <path class="cls-1" d="M222.51,421.73c0-95.78,64.05-161.59,156.9-161.59,31.15,0,59.94,6.47,82.28,17.63,12.34,5.87,17.63,14.68,17.63,23.5,0,14.1-9.39,23.5-23.5,23.5-5.87,0-12.34-1.18-19.97-4.71-19.97-9.39-39.36-12.34-56.41-12.34-81.72.02-156.93,51.73-156.93,114.01Z"/>
  <path class="cls-1" d="M573.31,278.96c-5.29,5.29-8.24,11.76-8.24,19.39,0,19.39,18.21,48.18,60.52,77.57l48.18,33.5c35.26,24.68,49.36,48.18,49.36,83.44,0,25.26-10,47.02-26.44,62.28,5.87-5.29,9.39-12.34,9.39-21.73,0-20.58-20.58-52.89-64.65-83.44l-44.07-30.55c-37.02-25.86-51.7-49.94-51.7-82.86,0-19.39,7.05-37.02,18.81-49.94,2.97-2.97,5.89-5.31,8.84-7.66Z"/>
  <path class="cls-1" d="M535.13,542.8c0,9.39,4.71,17.05,17.05,22.92,17.05,8.24,44.65,15.29,69.33,15.29,31.15,0,56.99-9.39,75.23-25.86,5.87-5.29,9.39-12.34,9.39-21.73,0-20.58-20.58-52.89-64.65-83.44,19.97,14.1,28.21,25.86,28.21,42.89,0,25.26-19.97,42.31-48.78,42.31s-51.13-14.1-64.05-14.1-21.73,8.81-21.73,21.73Z"/>
  <path class="cls-1" d="M625.62,375.92c-18.81-13.52-27.02-25.86-27.02-40.55,0-18.81,15.29-30.55,37.02-30.55,27.63,0,40.55,12.92,56.99,12.92,12.92,0,21.73-8.81,21.73-21.73,0-9.39-4.71-17.05-17.05-22.92-19.39-9.39-40.55-12.92-63.47-12.92-24.1,0-45.26,7.05-60.52,18.81-5.29,5.29-8.24,11.76-8.24,19.39,0,19.37,18.23,48.15,60.54,77.55Z"/>
  <path class="cls-1" d="M278.92,420.57c0,92.25,42.31,163.95,176.29,143.96,42.89-22.34,73.46-67.57,94.6-136.91l12.34-40.55c-11.76-15.29-16.45-32.31-16.45-50.55,0-19.39,7.05-37.02,18.81-49.94-17.63,18.81-32.31,46.42-44.07,85.2l-13.52,44.65c-24.1,78.75-62.28,116.35-121.64,116.35-65.23,0-106.36-45.23-106.36-112.22Z"/>
</svg>
