<?xml version="1.0" encoding="UTF-8"?>
<svg id="Capa_1" xmlns="http://www.w3.org/2000/svg" viewBox="0 0 800 800">
  <defs>
    <style>
      .cls-1, .cls-2 {
        fill: none;
      }

      .cls-2 {
        stroke: #000;
        stroke-width: 3px;
      }

      .cls-2, .cls-3 {
        stroke-miterlimit: 10;
      }

      .cls-3 {
        stroke: #000;
      }

      .cls-3, .cls-4 {
        fill: #000;
      }
    </style>
  </defs>
  <circle class="cls-2" cx="402.5" cy="402.5" r="234.5"/>
  <path class="cls-3" d="M480.5,498.5s1.16-1.11,1.58-8.55l8.42,6.55-5,5-5-3Z"/>
  <path class="cls-3" d="M499.5,514.5s7-3,10-8c0,0,1-1.7,0,3.15,0,0-5,16.39-10,19.62,0,0-2,.23-2-4.77s2-10,2-10Z"/>
  <path class="cls-3" d="M373.5,379.5s-1,5,5,6,14-2,18,2,2,2,2,3-4-2-4-2c0,0-12,0-17,2s-8.12-5.4-8.12-5.4c0,0,.12-2.6,4.12-5.6Z"/>
  <path class="cls-3" d="M333.5,497.5s-3-8-2-14c0,0-6,4-6,5,0,0,3,5,8,9Z"/>
  <path class="cls-3" d="M302.5,507.5l8,3s4,6.24,0,16.12c0,0-4-3.12-5-9.12s0,1-3-10Z"/>
  <path class="cls-1" d="M341,304.53v3.53s-1,.94-3-.06-1-3-1-3c0,0,.75.77,1.88.39s2.12-1.32,2.12-.85Z"/>
  <g>
    <path class="cls-4" d="M465.16,301.88l2.62-3.21-2.62-3.28s-6.76,2.7-8.07,6.49-3.31,8.02,3.69,12.41c0,0,1,.39,4,.39l3-4s-3.99,1.15-6-.93c-2-2.07-4.93-2.3-3-8.07,2-6,6.38.21,6.38.21Z"/>
    <path class="cls-4" d="M442.88,306.43l4.7,4.13,4.81-4.24s-7.74-3.33-7.57-5.33c.18-2-.82-5,2.18-3s6-1,6-1c0,0-4-2-5-4l-3.8,2.4-3.2-1.4-7,4s-1.23,1.31.39,1.16l3.61-2.16s3.4,1.09,3.2,5.55c-.2,4.45-3.2,8.45-3.2,8.45,0,0-1,1.28,1,.64,2-.64,3.88-5.21,3.88-5.21Z"/>
    <path class="cls-4" d="M476.36,317.19c.14-.24.92-.99,3.71-3.19,5.07-4,3.93-10,3.93-10,0,0,0-1-4-5s-9.52,6.03-9.52,6.03c-1.38,9.98,4.71,11.88,5.88,12.16ZM476.31,301.67c5.31-1.33,5.69,14.33,1.43,12.05-4.26-2.28-4.92-8.04-4.92-8.04.82-1.32-1.82-2.68,3.49-4.01Z"/>
    <path class="cls-4" d="M476.55,317.23s-.07-.01-.19-.04c-.12.19.19.04.19.04Z"/>
    <path class="cls-4" d="M392.19,279.95c1.31.43,2.52.35,2.69-.17s-.75-1.3-2.06-1.73c-1.31-.43-2.52-.35-2.69.17-.17.52.75,1.3,2.06,1.73Z"/>
    <path class="cls-4" d="M392.19,282.95c1.31.43,2.52.35,2.69-.17s-.75-1.3-2.06-1.73c-1.31-.43-2.52-.35-2.69.17-.17.52.75,1.3,2.06,1.73Z"/>
    <path class="cls-4" d="M336,288l2,3h2l-.2-1.5-1.8-2.5v-13.57l1-1.43-1-1.08-1,2.08-3-1s-9-3-12,7,10,13,14,9ZM331,274c3.31,0,6,3.13,6,7s-2.69,7-6,7-6-3.13-6-7,2.69-7,6-7Z"/>
    <path class="cls-4" d="M345,286s2,1,4,0v-11s0-1,2-1,0,.16,0,.16l2,2.84,3-3v-1h-1l-2-3-4,2-3.41-2-3.59,3,3,3v10Z"/>
    <path class="cls-4" d="M328,328l7-6v-1l-2-2s-2-2-5,0-6,7-4,12,9,5,9,5l4-3v-1c-8,2-9-4-9-4ZM329.31,320l2.69,3-4.47,4.06c-2.47-3.94,1.78-7.06,1.78-7.06Z"/>
    <path class="cls-4" d="M384,285c6-5,4-4.84,0-8.42-.03-.03-.05-.05-.08-.07l4.08-3.51s0-2-6-3-9,6-9,6c0,0,1,2,3,4l-4,4v1s6,5,12,0ZM379,272c4,1,4,3,4,3-1,2-3.02,1.93-3.02,1.93,0,0-3.98-.93-3.98-2.93s3-2,3-2ZM376,282c2-2,3-2,4-2.61,1-.61,7,4.61,2,5.61s-6-3-6-3Z"/>
    <path class="cls-4" d="M483,323l-4,2-3.41-2-3.59,3,3,3v10s2,1,4,0v-11s0-1,2-1,0,.16,0,.16l2,2.84,3-3v-1h-1l-2-3Z"/>
    <path class="cls-4" d="M487.78,306.63c1.31.43,2.52.35,2.69-.17.17-.52-.75-1.3-2.06-1.73-1.31-.43-2.52-.35-2.69.17-.17.52.75,1.3,2.06,1.73Z"/>
    <path class="cls-4" d="M488.41,307.73c-1.31-.43-2.52-.35-2.69.17-.17.52.75,1.3,2.06,1.73,1.31.43,2.52.35,2.69-.17.17-.52-.75-1.3-2.06-1.73Z"/>
    <path class="cls-4" d="M367,285.68l4-3v-1c-8,2-9-4-9-4l7-6v-1l-2-2s-2-2-5,0-6,7-4,12,9,5,9,5ZM363.31,269.68l2.69,3-4.47,4.06c-2.47-3.94,1.78-7.06,1.78-7.06Z"/>
    <path class="cls-4" d="M329,312l3-4s-3.99,1.15-6-.93c-2-2.07-4.93-2.3-3-8.07,2-6,6.38.21,6.38.21l2.62-3.21-2.62-3.28s-6.76,2.7-8.07,6.49c-1.31,3.79-3.31,8.02,3.69,12.41,0,0,1,.39,4,.39Z"/>
    <path class="cls-4" d="M382.83,299.34l2.16-2.64-2.16-2.7s-5.56,2.22-6.64,5.34c-1.08,3.12-2.73,6.6,3.04,10.22,0,0,.82.32,3.29.32l2.47-3.29s-3.29.95-4.94-.76c-1.65-1.71-4.06-1.9-2.47-6.65,1.65-4.94,5.25.17,5.25.17Z"/>
    <path class="cls-4" d="M341,310s0,3,2,3l4.08-4-.08-1-2,1s-.92.23-.96-2.89.96-8.11.96-8.11l-3-3.4s-4-1.6-7,3.4,1.3,5.68,1.3,5.68c0,0-6.3,4.32-.3,8.32h1.23l1.77-2h2ZM338.65,297s2.35,0,2.35,6c0,0-2,2-4,0s-.7-5,1.65-6ZM337,305s2,1.42,4-.79v3.79s-1.49,1-3.24,0-1.76-2-.76-3Z"/>
    <path class="cls-4" d="M391.57,332.21s-1.08.23-1.12-2.89c-.05-3.11,1.12-8.11,1.12-8.11l-3.51-3.4s-4.68-1.6-8.19,3.4,1.52,5.68,1.52,5.68c0,0-7.37,4.32-.35,8.32h1.44l2.07-2h2.34s0,3,2.34,3l4.78-4-.09-1-2.34,1ZM386.88,331.21s-1.74,1-3.8,0c-2.06-1-2.06-2-.89-3,0,0,2.34,1.42,4.68-.79v3.79ZM382.2,326.21c-2.34-2-.82-5,1.93-6,0,0,2.75,0,2.75,6,0,0-2.34,2-4.68,0Z"/>
    <path class="cls-4" d="M436.57,332.76s-1.08.24-1.12-3.06c-.05-3.3,1.12-8.61,1.12-8.61l-3.51-3.6s-4.68-1.7-8.19,3.6,1.52,6.02,1.52,6.02c0,0-7.37,4.58-.35,8.83h1.44l2.07-2.12h2.34s0,3.18,2.34,3.18l4.78-4.24-.09-1.06-2.34,1.06ZM431.88,331.7s-1.74,1.06-3.8,0c-2.06-1.06-2.06-2.12-.89-3.18,0,0,2.34,1.5,4.68-.84v4.02ZM427.2,326.39c-2.34-2.12-.82-5.3,1.93-6.36,0,0,2.75,0,2.75,6.36,0,0-2.34,2.12-4.68,0Z"/>
    <path class="cls-4" d="M470.46,292.42h1.44l2.07-2.12h2.34s0,3.18,2.34,3.18l4.78-4.24-.09-1.06-2.34,1.06s-1.08.24-1.12-3.06c-.05-3.3,1.12-8.61,1.12-8.61l-3.51-3.6s-4.68-1.7-8.19,3.6c-3.51,5.3,1.52,6.02,1.52,6.02,0,0-7.37,4.58-.35,8.83ZM476.31,288.17s-1.74,1.06-3.8,0-2.06-2.12-.89-3.18c0,0,2.34,1.5,4.68-.84v4.02ZM473.56,276.51s2.75,0,2.75,6.36c0,0-2.34,2.12-4.68,0-2.34-2.12-.82-5.3,1.93-6.36Z"/>
    <ellipse class="cls-4" cx="390" cy="292.5" rx="2" ry="2.5"/>
    <ellipse class="cls-4" cx="444" cy="265.5" rx="2" ry="2.5"/>
    <path class="cls-4" d="M354.39,306.43s-2.39-.43-1.39-8.43h5s1-.72,0-1.86l-4-.14,1-5s.62-2-.69-1c0,0-3.31,6-6.31,6,0,0-1,.8,0,1.4l1,.6h1v9l3,4,4-4-2.61-.57Z"/>
    <path class="cls-4" d="M452.35,274.31l1.33.69h1.33v10.27l3.98,4.56,5.31-4.56-3.46-.65s-3.17-.49-1.85-9.62h6.63s1.33-.82,0-2.12l-5.31-.16,1.33-5.7s.82-2.28-.91-1.14c0,0-4.39,6.85-8.37,6.85,0,0-1.33.91,0,1.6Z"/>
    <path class="cls-4" d="M446.33,320.59l1.05-5.47s.65-2.19-.72-1.09c0,0-3.48,6.56-6.63,6.56,0,0-1.05.87,0,1.53l1.05.66h1.05v9.85l3.15,4.38,4.2-4.38-2.74-.62s-2.51-.47-1.46-9.23h5.26s1.05-.78,0-2.03l-4.2-.16Z"/>
    <path class="cls-4" d="M361.2,319.86l1.05-4.71s.65-1.89-.72-.94c0,0-3.48,5.66-6.63,5.66,0,0-1.05.75,0,1.32l1.05.57h1.05v8.48l3.15,3.77,4.2-3.77-2.74-.53s-2.51-.41-1.46-7.95h5.26s1.05-.67,0-1.75l-4.2-.13Z"/>
    <path class="cls-4" d="M359.84,309.4c.01.11.03.31.05.47-.01-.11-.03-.26-.05-.47Z"/>
    <path class="cls-4" d="M359.84,309.39s0,0,0,0c0,0,0,0,0,.01,0,0,0,0,0-.01Z"/>
    <path class="cls-4" d="M359.84,309.38s0-.05,0-.08h0s0,.03,0,.08Z"/>
    <path class="cls-4" d="M360.15,295.49c-1.15,4.51,9.9,2.86,11.37,8.19s-8.53,3.32-9.53,1.32-1.01-3.06-1.01-3.06l-.83-.88-.63.88s.14,5.27.29,7.18c0,.07.01.13.02.19l.92.24,1.25-1.55h3l2,1s5,1,7-7c0,0,0-6-8-6,0,0-6.43-1,.28-5,0,0,4.28-.29,6,3.36h.97l-.26-5.36h-1l-.47,1-5.53-.28s-4.69,1.27-5.85,5.77Z"/>
    <path class="cls-4" d="M374,320s0,1-1-1-2-.7-2-.7l-4,3.97,3,.72.42,9,2.8,2,3.78-4-3-.34v-9.66Z"/>
    <ellipse class="cls-4" cx="370" cy="314.5" rx="2" ry="2.5"/>
    <path class="cls-4" d="M393,298.67s0,1-1-1-2-.7-2-.7l-4,3.97,3,.72.42,9,2.8,2,3.78-4-3-.34v-9.66Z"/>
    <path class="cls-4" d="M442.8,271.03l-5.6,4.55,4.2.83.59,10.3,3.92,2.29,5.3-4.58-4.2-.39v-11.05s0,1.14-1.4-1.14c-1.4-2.29-2.8-.8-2.8-.8Z"/>
    <path class="cls-4" d="M350.34,321.82l-1.34-2.82s-.89-1.36-1.44-.18l-3.56,2.18-2.27-2.89-3.89,2.89,2.41,2.97-.24,11.03s1.46,2,3.23,0v-11.35s1.93-2.6,3.85-.13l-.08,10.47,1,3,5-4v-1.01h-2s-.66-10.18-.66-10.18Z"/>
    <polygon class="cls-4" points="428.15 287.56 435 269 438 266 429.69 265.55 432.61 268 430.09 279 425.63 270.92 428 269 428.55 268 415 267 415 268 419 269 428.15 287.56"/>
    <path class="cls-4" d="M429.61,310.56l2.39,3.44h2.39l-.24-1.72-2.14-2.86v-15.54l1.19-1.64-1.19-1.24-1.19,2.38-3.58-1.15s-10.73-3.44-14.31,8.02c-3.58,11.45,11.93,14.89,16.7,10.31ZM423.65,310.56c-3.76,0-6.83-3.25-7.13-7.37l13.96,1.75c-.91,3.26-3.62,5.63-6.83,5.63ZM423.65,294.53c3.49,0,6.39,2.8,7.02,6.49l-14.16,1.02c.23-4.19,3.33-7.52,7.13-7.52Z"/>
    <polygon class="cls-4" points="418 314 413.69 314 413.69 333.82 417.22 337 421 333 421 331.99 418.43 331.99 418 314"/>
    <path class="cls-4" d="M468,324l-4.01-3.79-3.77,3.48v.17s3.89,1.64,3.89,1.64l-.17,6.55s-.08.08-.13.12c-2.05,1.71-5.81-.17-5.81-.17v-10l-3-1-3.54,2.65,2.54,1.52v8.83l3.26,3,5.74-3c2,4,3.82,3,3.82,3l2.18-2-1.22-1.9.22-9.1Z"/>
  </g>
  <g>
    <path class="cls-4" d="M449,516s-2.93,4.87-6.05,8.16c3.91-2.9,9.42-7.25,10.05-9.16.07-.21.2-.43.36-.65l-3.23-2.46c-.5,1.28-.89,2.65-1.14,4.11Z"/>
    <path class="cls-4" d="M360,459l-17,23c-3-6-5-8-5-8,8-8,11-17,13-21s-1-1-1-1c0,0-7.31,12.42-15.05,22.27,3.18,7.56,13.37,31.25,15.05,28.73,1.15-1.73.98-5.13.62-7.69l-2.62.69-4-10c7-6,15-22,17-26s-1-1-1-1Z"/>
    <path class="cls-4" d="M392,521c-8-7-20-7-23-25,0,0,.15-2.1.09-5.11l-2.09.11-2.57.68c.59,2.43,1.57,7.12,1.57,11.32,0,6,31,23,33,28,0,0,1-3-7-10Z"/>
    <path class="cls-4" d="M254.5,243.5v215.08c18,142.08,149,156.65,149,156.65,148-36.27,148-160.73,148-160.73l-.23-211c-160.23-17-296.77,0-296.77,0ZM499.5,281.5c11,0,20-1,20-1,11,2,10,11,10,11-4-3-8.66-1.49-8.66-1.49-14.66,8.51-21.34,8.51-21.34,8.51v-17.03ZM530,327.16c-4-3-8.66-1.49-8.66-1.49-14.66,8.51-21.34,8.51-21.34,8.51v-17.03c11,0,20-1,20-1,11,2,10,11,10,11ZM406.69,260.93s15.34-14,56.42,0c0,0,11.08,3,32.08,0v90.71s-3,3.29-39-4.71-49.5,5.38-49.5,5.38v-91.38ZM315,261c21,3,32.08,0,32.08,0,41.08-14,56.42,0,56.42,0v91.38s-13.5-13.38-49.5-5.38-39,4.71-39,4.71v-90.71ZM299,282h11v12h-11v-12ZM299,321h11v12h-11v-12ZM285,277c5.52,0,10,4.48,10,10s-4.48,10-10,10-10-4.48-10-10,4.48-10,10-10ZM285,316c5.52,0,10,4.48,10,10s-4.48,10-10,10-10-4.48-10-10,4.48-10,10-10ZM540.5,436.5s-4-1-16-7c0,0-13-18-17-24,0,0-3-1-1,2s16,25,19,32,4,11,4,11l1,5,1,26s-1,9-3,10-6-18-6-18c0,0-10-53-18-53,0,0-2,0,1,4s8,22,8,22l3,13s1,5,1,13c0,0-12,5-13,7s-1-28.43-5.5-35.72-3.5-4.28-3.5-4.28l4,26s1,2-9-10-9-9-9-9c0,0-1,1,9,16,0,0,2,3,9,8,0,0,0,11-2,12s-24-27-24-27c0,0-3-3-1,2s8,14,11,16,13,13,13,13c0,0-1,5-5,7l-9-6s0-9-6-6l-11-11s-3-3-1,1,4,9,9,12c0,0-4,6-5,9l-9-9s-3-2-1,1,1,4,10,11c.52.4,1.02.77,1.51,1.13,1.44-4.42,4.21-11.63,6.99-11.63,2.56,0,3.48,8.19,1.18,16.19,3.35,1.3,5.32,1.31,5.32,1.31,0,0-1.86,3.07-8.43,5.84-1.12,1.77-2.46,3.38-4.07,4.66,0,0,20-7,31-28,0,0,11-8,15-9s-3,4-3,4l-1,3s-1,10-5,15c0,0-1,3,0,2s6-4,7-2c0,0-4,2-4,4s-13,13-18,12c0,0-42,10-61,25,0,0,10,10,26,0s12-5,12-5c0,0-11,14-17,15s-33-1-40,7c0,0,5-1,19,8,0,0,8-6,15-7s9,5,9,5c0,0-4-1-8,6s-12,7-12,7l-21-10h-4s-3,3.27,0,7.63,6,7.37,6,7.37c0,0,2,2.97,0,7.98s-10,4.61-13.5.81c-3.5-3.8-4.5-5.8-4.5-5.8,0,0,4,1,7,1s3-1,3-1c0,0,2-1,0-5s-3-1-5.5-13l-12.5,11s-9,7-16,3-6-10-25-21c0,0,20-1,25,7s11,6,11,6c0,0,11-7,12-12s-24-6-27-3c0,0,7-10,13-10s5.73,0,5.86,0h.14c-1,0,5,1,10,9,0,0,2-2-2-7s-7-7-16-8-15,7-21,9-18-5-25-13c0,0-5-5-6-8,0,0,18,10,21,8,0,0,4,2,15-4s29,6,29,6c0,0,1-4-16-11,0,0-13-3-24,2,0,0-6,3-13-2,0,0-2-2-6-3,0,0,5-7,16-5l5,1s1-2-7-5c0,0-19-2-25-4s-20-5-22-6,2-4,7-4c3.7,0,5.21.55,5.74.83-1.78-1.19-12.41-8.91-8.74-20.83,0,0,1-3-1-9,0,0,8-1,8,7,0,0,1,20,7,21,0,0-3-7,2-10,0,0,4,10,12,11,7.58.95-3.68-1.71-1.49-24.93-.84,1.02-1.68,2.01-2.51,2.93-9,10-12,10-12,10l-1-8c13-12,16-22,19-26s1-3,1-3l-20,25c0-2-5-7-5-7,2,0,14-21,15-24s-1-1-1-1c0,0-12,18-15,22s-2.61.76-2.61.76c.39-13.24,2.61-11.76,2.61-15.76s-1-2-2-1-4,18-4,18h-4s-4,3-1,3,4,7,4,7c0,0-2,8-1,12s3,7,3,7c-5,0-6,3-6,3,0,0-1,0-3-14s2-41,2-43-1,0-1,0c0,0-17,37-18,44s-9,10-4-10,17-37,19-41-1-1-1-1c0,0-6,6-15,14s-13.13,3.59-13.13,3.59l28.12-28.54c-9.09,5.99-42.59,9.95-20.98.95,24-10,33-28,27-23s-14,7-23,7-6-2-6-2l48-29c6,0,6-2,6-2-2,1-8,0-8,0-4-3,0-7,0-7,4,5,5,3,21-1s16,11,16,11c0,0-2,8,0,10s6,2,6,2c0,0,0,4-3,5s-9-2-9-2l-.28,2c-7.28,5-4.72,9-4.72,9,0,0,4,6,2,6s-3,9,3,7,12-2,12-2c5,3,8,3,8,3,1-8-3-5-6-9s3-14,3-14c1,4,7,9,7,9,0,0,15,8,11.19,16.86s0,12.16,0,12.16c-9.81,14.03-.19,25.97-.19,25.97-4,10,3,16,3,16-1,2-1,13-1,13l-2.31.12c4.57,8.94,5.31,11.88,5.31,11.88l10,15s-.77-2.44-1.62-6.23c-5.29-6.23-10.38-15.22-10.38-26.77,0,0,0-8,6-11,0,0,0-3-1-4,0,0-4,13-7,0,0,0-1-5,3-7,0,0,1.97-2.95,1.02-6.91.12.58.64,4.08-3.02,5.91,0,0-12.5-10.6,4.05-29.9-1.12,1.18-3.08,2.9-5.05,2.9,0,0-3-7,2-15,0,0,1-3,11-5,0,0-3,0-4-3,0,0,16.59,0,14.3-9.5,0,0-5.3,8.5-9.3,3.5,0,0,2,0,3-3s-6-4-6-3-5,1-6-4c0,0,4,1,7-1s6-1,6-1c0,0,2,0,7,5,0,0,3-7-7-9,0,0-2-6-11-7,0,0,0-4-5-5s-5.5,4.5-5.5,4.5c0,0-2-1-3-6,0,0,.5-3.5,5.5-7.5,0,0,2-1,3,2s1,4,3,4,0-3.36,0-3.36c0,0-4-7.64,4-2.64,0,0,1,0,1-1s3-3,3-3c0,0,4.08-3,11.54,0s9.46,5,13.46,2c0,0,2,.25,0,3.13s3,2.87,6-2.13c0,0,3,4-3,8,0,0-2.54.63-4.08.38.97.46,2.44,1.33,3.08,2.62,1,2,1,5,1,5,0,0,1,3,4,2,0,0,2,3-3,3,0,0-1.04-.01-1.62-.77.58,1.96,1.62,5.88,1.62,8.77,0,4,4,6,4,6,0,0-1,3-6-3,0,0,1,4,1,7s-1,8-2,8-5-6-5-6c0,0,4,10,3,16,0,0,0,2-2-1s-3-4-3-4c0,0,1,8,5,10s8,10,5,26c0,0-1.42-.37-2.78-1.92.95,1.85,2.21,3.96,3.78,5.92,4,5,0,12,0,12l-5-7s4,8,3,14,0,8-3,13l-1.16,2.49c.1.85.16,1.69.16,2.51,0,0,0,4.93-1.5,9.99-.74,2.5-1.85,5.03-3.5,7.01,0,0-3,4-4,9,0,0,7-10.64,9-15.82,2-5.18,2-12.18,2-12.18l5-8,2,4,1,7-2,7-5,8,2,2s7-6,6-10c0,0,3,0,2,7,0,0,0,1-7,7,0,0-2,5-1,7s6-6,6-6c0,0,6-5,5-16,0,0,.05-.09.14-.25l-1.64-1.25s-2,1-2-4,2-5-5-17l-1-8s5-3,1-14c0,0,0-7,2-20,0,0-4-11-8-11,0,0,2-1,2-8,0,0,3.27,2,6.63,0,3.37-2,1.37-5,1.37-5,0,0,2-4,6-5s-1.53-8-1.53-8c0,0,8.53,0,7.53,9,0,0-5.84,6.86.08,5.93,5.92-.93,7.85-1.93,7.85-1.93,0,0,4.07-4,3.07-8s5.36-6.5,5.36-6.5c0,0,2.64-3.5-3.36-5.5v-5l-5,6s-1,2-9-1c0,0-4,0-5,1,0,0-2-3,6-5s3-9,3-9c0,0,5.88-13,13.94-9.5,0,0,4.06-5.5,18.06-2.5s9,6,18,4c0,0,0,4-6,4,0,0-2,0,9,4s9,6,9,6h-2l25,26s0,1-9-4l-13.23-11.45s-2.77-1.55-.77,1.45,15,16,15,16c0,0,10,11,13,16s2,5,2,5Z"/>
    <path class="cls-4" d="M417.01,674.18c-1.87.17-3.25,1.09-4.16,2.76-.91,1.67-1.19,4.44-.84,8.32.32,3.54,1.03,5.99,2.14,7.36,1.11,1.37,2.6,1.97,4.46,1.8,1.29-.12,2.3-.45,3.02-.99.72-.55,1.24-1.23,1.55-2.05s.48-1.78.5-2.86c.02-1.09-.02-2.2-.12-3.35-.69-7.65-2.87-11.31-6.55-10.98Z"/>
    <path class="cls-4" d="M380.43,663.2c-1.29-.09-2.44.28-3.43,1.1-.99.82-1.56,2.19-1.68,4.11-.1,1.48.42,3.04,1.56,4.65,1.14,1.62,3.09,3.36,5.85,5.23.88-.85,1.53-1.94,1.95-3.26.42-1.32.69-2.7.78-4.13.15-2.25-.24-4.07-1.18-5.46-.94-1.39-2.23-2.13-3.85-2.24Z"/>
    <path class="cls-4" d="M689.13,398.24l-.24,13.46,18.54-6.22c-6.15-2.41-12.66-4.98-18.3-7.24Z"/>
    <path class="cls-4" d="M383.61,690.84c-.52-.9-1.31-1.88-2.38-2.94-1.06-1.06-2.52-2.27-4.36-3.65-.86.52-1.55,1.13-2.09,1.84-.53.71-.97,1.46-1.31,2.26-.34.79-.59,1.58-.74,2.37-.15.78-.25,1.54-.3,2.25-.12,1.77-.05,3.27.2,4.49.26,1.22.66,2.21,1.22,2.97.55.76,1.21,1.31,1.96,1.65.75.34,1.56.54,2.43.6,1.69.11,3.14-.43,4.36-1.62,1.22-1.19,1.9-2.89,2.05-5.09.06-.86.03-1.71-.08-2.53-.11-.83-.43-1.69-.95-2.59Z"/>
    <path class="cls-4" d="M278,144.72l3.13-1.46c3.39-1.59,5.3-3.12,6.29-5.25,1.66-3.08,1.48-6.18-.17-9.7-3.27-6.98-9.09-7.35-14.11-5-1.89.88-2.88,1.67-3.15,2.27-.37.73-.26,1.47.53,3.17l7.48,15.98Z"/>
    <path class="cls-4" d="M518.54,161.75c7.89,3.68,16.57.58,22.44-12.01,6.39-13.7,2.53-24.32-6.02-28.31-7.31-3.41-16.82-.38-22.51,11.82-5.66,12.14-3.17,24.18,6.09,28.5Z"/>
    <path class="cls-4" d="M675.41,505.08c-12.23-5.47-24.23-2.79-28.4,6.54-3.56,7.95-.32,16.58,12.37,22.25,13.8,6.17,24.36,2.14,28.21-6.47,3.29-7.36.11-16.83-12.18-22.33Z"/>
    <path class="cls-4" d="M403.5,73c-181.43,0-328.5,147.07-328.5,328.5s147.07,328.5,328.5,328.5,328.5-147.07,328.5-328.5S584.93,73,403.5,73ZM716.82,408.52c-12.39,4.32-26.08,9.04-38.61,13.36-6.3,2.19-6.89,2.83-7.56,7.93l-2.02-.04.31-17.78,2.02.04c.49,4.69,1.2,5.28,3.96,4.32,2.82-.89,6.45-2.26,11.01-3.69l.28-15.55c-3.22-1.21-6.01-2.34-8.94-3.4-4.65-1.67-5.25-.67-6.07,5.22l-2.02-.04.29-16.63,2.01.04c.5,4.54.98,5.71,7.41,8.34l37.53,15.57.39,2.31ZM713.03,352.58c1.1,6.09.71,11.28.78,13.68-3.14.86-7.3,2.12-10.74,3.32l-.89-2.11c4.49-2.27,7.09-4.49,7.93-8.38.52-2,.49-4.99,0-7.68-2.1-11.69-11.86-16.3-23.55-14.2-13.67,2.46-21.19,11.13-19.12,22.61,1.3,7.23,5.27,10.17,13,12.51l-.33,2.25c-3.58-.38-9.01-1.3-11.4-1.97-.79-1.98-3.06-7.27-4.03-12.66-3.05-16.93,6.66-27.6,19.06-29.83,14.45-2.6,26.42,6.58,29.28,22.46ZM694.22,293.25l1.91-.65,6.24,18.26-1.91.65c-2.55-5.44-3.01-5.9-8.86-3.89l-27.04,9.25c-5.86,2-5.88,2.62-4.56,8.48l-1.91.65-6.24-18.26,1.91-.65c2.52,5.38,2.98,5.83,8.77,3.85l27.04-9.25c5.86-2,5.95-2.64,4.65-8.44ZM665.13,233.65l1.78-.96,9.1,16.93-1.78.95c-3.17-4.83-3.95-5.23-9.22-2.4l-10.08,5.42,11.66,21.69,10.08-5.42c5.26-2.83,5.33-3.76,3.05-9.08l1.78-.95,9.13,17-1.78.95c-3.34-4.99-3.93-5.33-9.25-2.46l-25.43,13.67c-5.33,2.86-5.21,3.54-2.99,9.04l-1.78.95-9.13-17,1.78-.96c3.46,4.92,3.86,5.36,9.19,2.5l12.68-6.82-11.65-21.69-12.68,6.82c-5.26,2.83-5.18,3.44-3.02,8.98l-1.78.95-9.1-16.93,1.78-.95c3.33,4.83,3.83,5.3,9.16,2.44l25.43-13.67c5.33-2.86,5.34-3.6,3.08-9.01ZM610.57,200.44c11.23-9.46,26.19-7.47,36.58,4.87,3.99,4.74,6.25,9.43,7.5,11.47-2.29,2.31-5.27,5.48-7.65,8.24l-1.82-1.38c2.76-4.21,3.91-7.43,2.7-11.22-.54-1.99-2.06-4.57-3.82-6.66-7.65-9.09-18.41-8.22-27.49-.56-10.63,8.95-12.82,20.21-5.3,29.13,4.73,5.62,9.64,6.19,17.51,4.36l.84,2.12c-3.29,1.46-8.46,3.36-10.87,3.98-1.68-1.32-6.29-4.78-9.81-8.96-11.09-13.16-7.99-27.26,1.65-35.37ZM555.93,174l16.58-23.19c3.64-5.1,3.22-5.75-1.12-9.57l1.17-1.64,18.56,13.27c5.27,3.77,7.3,5.13,8.34,5.79-1.45,2.15-4.15,6.42-5.86,9.44l-1.98-1.06c.65-2.02,1.18-3.76,1.28-5.63.31-2.79-.23-3.88-3.51-6.23l-6.27-4.48c-1.7-1.21-2-1.16-3.21.54l-9.67,13.53,7.26,5.19c4.22,3.02,5.01,2.52,8.82-.95l1.76,1.26-8.75,12.24-1.82-1.3c2.17-4.64,2.43-5.87-1.73-8.85l-7.26-5.19-7.5,10.48c-3.64,5.09-3.22,5.75,1.77,10.03l-1.17,1.64-16.28-11.64,1.17-1.64c5,3.04,5.82,3.01,9.42-2.03ZM504.84,131.85c5.45-11.68,18.78-18.65,32.55-12.23,11.16,5.2,17.16,18.41,11.1,31.39-6.54,14.03-20.14,18.33-32.15,12.73-12.53-5.84-17.22-19.63-11.5-31.89ZM439.77,92.32l17.42,3.2-.36,1.98c-5.23-.23-5.12.74-4.28,3.39,1.97,6,4.13,12.98,6.12,18.84,3.42-4.28,8.88-11.25,11.58-14.78,2.28-3.24,2.2-3.99-3.29-5.58l.37-1.98,16,2.94-.37,1.98c-5.06-.35-6.05.28-9.72,4.29-4.14,4.58-7.66,8.99-12.29,14.65-1.15,1.47-1.52,2.28-1.83,3.98l-1.6,8.71c-1.08,5.88-.52,6.42,5.95,8.27l-.37,1.98-20.32-3.74.36-1.98c6.6.34,7.12.29,8.22-5.66l1.68-9.13c.26-1.42.09-2.11-.66-4.37-1.63-5.06-3.22-9.96-5.82-17.32-1.88-5.32-2.43-6.3-7.15-7.68l.37-1.98ZM384.36,89.5h1.66c1.08,1.72,1.88,1.64,3.89,1.64l28.51-.08c2.02,0,2.59-.29,3.67-1.67h1.73c0,3.38.31,8.56.68,12.74l-2.16.22c-.66-2.3-1.53-4.68-2.32-5.97-1.16-1.94-1.88-2.44-5.84-2.43l-7.2.02.1,35.06c.02,5.62.59,6.41,7.44,6.82v2.02s-20.95.06-20.95.06v-2.02c6.69-.45,7.26-1.17,7.25-6.86l-.1-35.06-6.55.02c-3.96.01-5.11.45-6.33,2.61-.86,1.44-1.43,3.17-2.36,5.84h-2.16c.42-4.39.84-8.92,1.04-12.96ZM368.84,93.04l.3,1.99c-5.82,1.52-6.34,1.89-5.43,8.02l4.21,28.27c.91,6.12,1.51,6.25,7.52,6.02l.3,1.99-19.09,2.84-.3-1.99c5.74-1.51,6.27-1.88,5.37-7.93l-4.21-28.28c-.91-6.12-1.52-6.33-7.46-6.1l-.3-1.99,19.09-2.84ZM323.67,100.89c3.88-1.08,7.99-1.1,9.52-1.23.97,2.42,2.02,5.12,3.83,9.47l-2.03,1.02c-2.45-4.25-5.65-8.22-12.17-6.4-5.41,1.51-6.18,5.98-5.18,9.59,1.33,4.79,5.06,6.36,11.65,7.74,9.52,1.98,14.01,4.17,15.85,10.76,2.03,7.28-2.74,14.59-11.69,17.08-4.16,1.16-8.1.98-11.25.67-1.1-1.79-3.24-6.27-4.77-9.88l2-1.15c2.68,4.26,7.41,9.45,14.63,7.44,4.99-1.39,7.08-5.71,5.82-10.22-1.49-5.34-4.93-6.7-11.96-8.33-8.38-1.92-13.4-4.11-15.2-10.56-1.72-6.17,1.79-13.43,10.95-15.98ZM272.99,120.6c4.76-2.23,8.23-3.14,11.47-2.67,3.47.44,6.6,2.56,8.46,6.53,2.63,5.61.69,10.81-3.16,15.15,2.12,1.47,6.97,4.53,10.3,6.55,4.03,2.33,6.03,3.38,8.29,4.3,2.65,1.07,4.48,1.08,6.16.77l.59,1.95c-.85.4-1.6.67-2.47,1-4.91,1.9-8.04,1.85-12.8-.85-3.97-2.2-8.24-5.21-11.88-7.55-2.28-1.48-3.31-1.47-6.64.09l-2.28,1.07,4.79,10.24c2.59,5.54,3.46,5.53,8.92,3.61l.85,1.83-17.41,8.15-.85-1.83c5.14-3.12,5.47-3.59,2.88-9.14l-12.18-26.02c-2.59-5.54-3.4-5.4-8.83-3.58l-.85-1.83,16.63-7.78ZM231.3,144.16c5.56-3.86,7.83-5.51,8.5-6.07,1.08,1.44,4.4,5.71,6.81,8.69l-1.57,1.53c-1.93-1.64-3.38-2.48-4.89-3.27-2.3-1.3-3.95-.77-7.5,1.69l-5.62,3.9c-1.84,1.27-1.83,1.53-.64,3.25l9.06,13.08,6.57-4.55c4.44-3.08,4.12-4.17,2.04-8.69l1.84-1.27,8.45,12.19-1.83,1.27c-3.72-3.73-4.61-3.99-8.87-1.04l-6.51,4.51,8.16,11.78c2.87,4.14,4.42,3.6,7.42,1.6l5.5-3.81c3.61-2.5,3.83-3.44,4.07-5.88.26-2.02-.18-5.31-.58-7.66l2.1-.76c.71,1.78,3.34,8.99,3.98,11.17l-28.76,19.93-1.15-1.66c5.22-4.23,5.26-5.05,1.9-9.9l-16.2-23.38c-3.65-5.27-4.51-5.11-9.23-2.45l-1.15-1.66,18.11-12.55ZM181.31,186.04l1.43,1.43c-3.36,4.17-2.95,4.99-.36,6.16,4.99,2.44,18.84,8.86,30.5,14.1-3.87-9.27-8.81-20.92-12.83-29.73-1.83-4.07-2.9-3.92-7.59-.25l-1.43-1.43,11.71-11.71,1.43,1.42c-2.95,3.87-3.36,5.19-.61,11.61,1.99,4.73,12.02,28.82,15.84,37.62l-1.68,1.68c-11.2-5.19-27.49-12.72-37.93-17.36-5.19-2.34-6.57-1.99-9.98.82l-1.43-1.43,12.93-12.93ZM161.31,208.74l1.62,1.2c-3.04,5.18-3.15,5.82,1.82,9.51l22.95,17.04c4.97,3.69,5.49,3.36,9.57-1.06l1.62,1.2-11.5,15.49-1.62-1.2c3-5.13,3.11-5.76-1.8-9.41l-22.95-17.04c-4.97-3.69-5.55-3.4-9.58.96l-1.62-1.2,11.5-15.49ZM122.23,272.16l46.19-10.49-15.67-8.1c-5.95-3.08-8.77-4.37-10.78-5.17-2.98-1.3-4.63-.29-7.6,4.67l-1.79-.93,8.17-15.8,1.79.93c-1.67,4.33-1.72,6,1.12,7.71,2.01,1.12,4.63,2.64,10.58,5.71l25.65,13.26-1.26,2.43-47.6,10.09,15.99,8.26c5.76,2.98,8.73,4.27,10.66,5.1,3.33,1.56,5.11.46,7.88-3.95l1.79.93-8.03,15.54-1.79-.93c1.73-4.13,1.56-6.16-1.44-8.04-1.95-1.25-4.76-2.87-10.58-5.87l-16.31-8.43c-1.79-.93-2.88-1.33-4.88-.9-2.23.39-3.31,1.53-5.25,4.5l-1.79-.92,4.96-9.6ZM104.15,323.87l1.94.54c-1.18,5.65-.78,6.36,5.46,8.08l17.35,4.79c10.13,2.79,17.01-.46,19.3-8.79,2.72-9.86-2.53-14.67-14.05-17.84l-7.08-1.95c-6.39-1.76-9.08-2.28-10.99-2.66-3.18-.65-4.8.62-6.5,5.68l-1.94-.54,4.59-16.66,1.94.54c-.93,4.45-.26,6.35,2.9,7.37,1.58.51,4.45,1.45,10.84,3.21l7.5,2.07c7.08,1.95,12.26,4.28,15.39,9.47,2.5,4.2,2.24,9.21.92,14-1.11,4.03-3.13,8.1-6.33,10.5-4.34,3.28-9.69,3.98-17.81,1.74l-17.7-4.88c-6.25-1.72-6.82-1.28-8.83,4.14l-1.94-.54,5.03-18.25ZM94.17,384.44c1.8-.05,7.2-.29,11.02-.54l.34,2.16c-2.45.62-3.97,1.33-5.49,2.11-2.39,1.13-2.91,2.78-2.95,7.1l-.06,6.84c-.02,2.23.19,2.38,2.28,2.4l15.91.15.08-7.99c.05-5.4-1.03-5.77-5.91-6.68l.02-2.23,14.83.14-.02,2.23c-5.19.89-5.92,1.46-5.97,6.64l-.07,7.92,14.33.13c5.04.05,5.49-1.53,5.59-5.13l.06-6.7c.04-4.39-.6-5.12-2.46-6.72-1.5-1.38-4.44-2.92-6.59-3.95l.6-2.16c1.87.45,9.27,2.46,11.42,3.21l-.33,34.99-2.02-.02c-.44-6.7-1.08-7.21-6.99-7.27l-28.44-.27c-6.41-.06-6.78.73-7.33,6.12l-2.02-.02.21-22.03c.06-6.77.02-9.58-.05-10.44ZM106.22,483.95l-1.98.38-3.58-18.89,1.98-.38c1.57,5.57,2.2,6.18,8.07,5.07l11.25-2.13-4.59-24.19-11.25,2.13c-5.87,1.11-6.22,1.98-5.64,7.74l-1.98.38-3.59-18.96,1.98-.38c1.68,5.76,2.14,6.26,8.08,5.14l28.37-5.38c5.94-1.13,6.03-1.8,5.57-7.72l1.98-.38,3.59,18.96-1.98.38c-1.82-5.74-2.07-6.28-8.01-5.15l-14.15,2.68,4.59,24.19,14.15-2.68c5.87-1.11,5.98-1.72,5.58-7.66l1.98-.38,3.58,18.89-1.98.38c-1.72-5.61-2.06-6.21-8-5.08l-28.37,5.38c-5.94,1.13-6.17,1.83-5.65,7.67ZM162.59,511.95c-2.93-6.04-3.82-6.3-9.08-4.15l-32.46,13.26,2.48,6.07c1.5,3.67,2.33,4.57,4.8,4.89,1.66.25,3.48.13,6.3,0l.82,2c-4.23,1.26-8.59,2.58-12.41,3.9l-.63-1.53c1.19-1.65.83-2.36.06-4.23l-10.78-26.4c-.76-1.87-1.25-2.29-2.92-2.77l-.65-1.6c3.13-1.28,7.82-3.51,11.55-5.42l1.02,1.92c-1.89,1.47-3.76,3.17-4.66,4.39-1.36,1.8-1.56,2.66-.06,6.33l2.72,6.67,32.46-13.26c5.2-2.12,5.71-2.96,3.53-9.45l1.87-.76,7.92,19.4-1.87.76ZM357.19,669.96c-.03.24-.06.45-.1.64-.08.38-.21.61-.4.69-.19.08-.38.13-.58.14-1.69-.11-2.83-.03-3.4.24-.57.27-.93.74-1.06,1.4l-4.99,23.82c-.15.71.04,1.28.56,1.74.52.45,1.48.97,2.87,1.56.18.09.34.21.48.36.14.15.18.39.11.72-.09.42-.23.86-.42,1.31-1.2-.35-2.5-.71-3.89-1.07-1.39-.37-3.01-.74-4.84-1.12-1.83-.38-3.44-.67-4.82-.86s-2.67-.36-3.86-.51c-.06-.21-.07-.44-.04-.71.03-.26.07-.51.12-.75.11-.52.43-.77.97-.75,1.56.03,2.66-.05,3.29-.27.63-.21,1.02-.67,1.17-1.37l4.99-23.82c.14-.66-.06-1.23-.6-1.71-.54-.48-1.49-.99-2.85-1.52-.23-.1-.4-.22-.51-.37-.12-.15-.14-.41-.06-.78.04-.19.08-.4.13-.63.05-.23.14-.46.29-.68,1.14.39,2.42.75,3.82,1.09,1.4.34,3.02.71,4.85,1.09,1.83.38,3.45.69,4.85.91,1.4.22,2.73.39,3.98.5,0,.25-.02.49-.04.73ZM394.12,694.5c-.14,2.11-.73,3.93-1.78,5.47-1.04,1.54-2.34,2.8-3.9,3.78-1.56.98-3.3,1.67-5.23,2.06-1.93.4-3.85.53-5.76.4-4.55-.31-8.12-1.46-10.7-3.46-2.58-2-3.74-4.99-3.47-8.97.18-2.68,1.29-5,3.32-6.96,2.03-1.96,4.56-3.53,7.57-4.72-2.98-2.17-4.98-4.28-6-6.32-1.02-2.04-1.47-3.95-1.35-5.72.09-1.29.4-2.59.95-3.91.55-1.31,1.38-2.46,2.51-3.44,1.12-.98,2.56-1.75,4.31-2.31,1.74-.55,3.84-.75,6.28-.59,2.39.16,4.44.55,6.13,1.17,1.69.62,3.06,1.4,4.1,2.33,1.04.94,1.79,2.01,2.24,3.22.45,1.21.63,2.48.54,3.82-.17,2.44-1.02,4.48-2.58,6.1s-3.44,2.92-5.67,3.87c2.96,2.41,5.17,4.73,6.6,6.94,1.44,2.21,2.07,4.61,1.9,7.2ZM433.08,694.53c-.6,3.02-1.73,5.99-3.39,8.91-1.67,2.92-3.89,5.7-6.66,8.33-2.78,2.63-6.2,4.93-10.26,6.89-.6-.72-.92-1.34-.96-1.87-.03-.33.15-.71.55-1.13,2.01-1.82,3.65-3.47,4.94-4.96,1.29-1.49,2.36-2.97,3.21-4.45.86-1.47,1.52-3.05,2-4.73.47-1.68.88-3.6,1.22-5.75-1.95,1.96-4.47,3.08-7.58,3.35-1.72.16-3.34.06-4.87-.29-1.53-.34-2.89-1.01-4.08-1.98-1.2-.98-2.18-2.26-2.95-3.86-.77-1.59-1.26-3.58-1.48-5.98-.17-1.86.02-3.71.55-5.54.53-1.83,1.38-3.5,2.55-5,1.17-1.5,2.65-2.77,4.47-3.8,1.81-1.03,3.94-1.65,6.37-1.87,3.11-.28,5.7-.02,7.77.78,2.07.8,3.75,1.93,5.04,3.38,1.29,1.45,2.24,3.14,2.88,5.05.63,1.92,1.03,3.86,1.21,5.82.25,2.77.08,5.67-.52,8.69ZM477.39,683.53c-.22,2.25-.85,4.32-1.88,6.24-1.03,1.91-2.49,3.58-4.37,5-1.88,1.42-4.15,2.48-6.79,3.19-2.64.7-5.13.93-7.46.68-2.33-.25-4.41-.92-6.24-2.03-1.83-1.1-3.41-2.58-4.72-4.44-1.32-1.86-2.31-4.04-2.97-6.55-.63-2.37-.82-4.7-.56-7,.25-2.3.92-4.42,2-6.34,1.08-1.93,2.53-3.62,4.35-5.07s4.01-2.52,6.56-3.2c2.5-.67,4.92-.85,7.23-.55s4.42,1.01,6.3,2.12c1.89,1.11,3.51,2.6,4.88,4.47,1.37,1.87,2.38,4.06,3.05,6.56.63,2.37.83,4.67.61,6.92ZM403.5,648c-135.59,0-245.5-109.91-245.5-245.5s109.91-245.5,245.5-245.5,245.5,109.91,245.5,245.5-109.91,245.5-245.5,245.5ZM689.43,529.8c-5.03,11.24-18.13,17.45-31.21,11.6-14.13-6.32-18.65-19.86-13.24-31.95,5.64-12.62,19.36-17.53,31.71-12.01,11.77,5.26,18.94,18.49,12.74,32.36ZM709.38,469.85c-1.52,7.19-4.04,12.17-4.86,14.28-2.63-.41-7.01-.97-11.56-1.34l.03-2.2c6.34-.42,9.31-1.93,11.73-6.06.91-1.5,1.87-4.31,2.3-6.36,2.28-10.78-3.64-19.31-16.53-22.04-11.2-2.37-23.55,1.06-26.44,14.72-.51,2.39-.47,4.68-.07,6.24.53,1.66,1.11,2.74,4,3.35l5.78,1.22c5.14,1.09,5.83.64,7.75-6.02l2.04.43-3.83,18.1-2.04-.43c.36-4.49,0-4.86-4.16-5.74l-5.92-1.25c-2.46-.52-4.8-.94-6.78-.99-.06-4.58-.41-10.61.84-16.53,3.38-15.99,15.37-23.61,29.52-20.62,14.86,3.14,21.18,17.13,18.2,31.22Z"/>
    <path class="cls-4" d="M465.28,673.16c-.87-1.58-1.81-2.83-2.83-3.76-1.02-.92-2.06-1.51-3.12-1.78-1.06-.26-2.08-.26-3.06,0-.97.26-1.86.77-2.65,1.53-.79.76-1.41,1.76-1.84,3.02-.44,1.26-.63,2.8-.59,4.63.04,1.83.38,3.95,1.02,6.36.62,2.32,1.36,4.26,2.22,5.82s1.79,2.78,2.8,3.65c1,.88,2.05,1.44,3.13,1.7,1.09.26,2.14.25,3.16-.02.93-.25,1.78-.73,2.55-1.46.78-.73,1.37-1.72,1.78-2.97.41-1.25.61-2.77.61-4.56,0-1.79-.32-3.86-.95-6.23-.63-2.37-1.38-4.34-2.25-5.92Z"/>
  </g>
</svg>
